<svg id="Layer_1" enable-background="new 0 0 494.244 494.244" height="512" viewBox="0 0 494.244 494.244" width="512" xmlns="http://www.w3.org/2000/svg"><g><path d="m432.754 337.65-394.32 154.71c-22.767 8.625-45.236-13.894-36.46-36.73 9.048-23.503-9.743 24.505 154.69-394.41.88-.11 1.77-.26 2.66-.46 165.549-36.933 312.358 112.001 273.43 276.89z" fill="#faf0d3"/><path d="m432.754 337.65c-386.391 151.644-395.614 155.173-396.3 155.38-23.085 6.419-42.789-15.84-34.48-37.4l.74-1.93c.699 1.512 86.832-27.658 389.04-140.05.102-.43.202-.859.301-1.289 18.612-80.762-17.736-164.536-89.596-205.828-44.329-25.472-97.645-36.493-152.995-26.953l7.2-18.36c5.01-.63 31.35-8.11 68.89-5.41 136.424 8.527 240.592 139.938 207.2 281.84z" fill="#f4e1a1"/><path d="m485.984 351.82c-2.21 9.12-8.97 16.46-17.87 19.43-22.352 7.222-40.531-12.243-35.67-32.3 36.264-155.877-87.267-293.201-238.18-283.2-21.169 1.39-33.474 4.954-37.6 5.47-20.384 2.607-36.326-17.34-29.44-36.27 3.1-9.08 10.74-15.84 20.11-17.93 205.746-45.815 388.208 139.901 338.65 344.8z" fill="#aa7569"/><path d="m488.06 342.593c42.135-202.006-138.674-380.565-340.726-335.572-8.851 1.974-16.153 8.118-19.548 16.445 1.46-.602 2.977-1.094 4.548-1.445 101.798-22.669 197.861 11.324 262.966 76.258 57.184 65.741 84.905 157.534 61.684 253.541-1.74 7.17-6.29 13.25-12.49 16.95 11.523 7.184 27.639 4.588 36.394-6.503 4.616-5.845 5.432-11.339 7.172-19.674z" fill="#9a6758"/><path d="m364.304 364.51-119.12 46.73c-6.3-21.75-.87-46.17 16.28-63.32 30.988-30.987 83.249-22.462 102.84 16.59z" fill="#e48c9b"/><path d="m364.304 364.51c-1.881.728-21.275 8.343-119.12 46.73-4.25-14.69-3.16-30.6 3.29-44.66 31.68-11.65 61.41-22.62 85.49-31.51 12.58 5.8 23.47 15.74 30.34 29.44z" fill="#cc5b6f"/><path d="m118.706 433.789c-7.063 0-10.711-8.603-5.657-13.657 21.927-21.927 21.927-57.604 0-79.531-3.125-3.124-3.125-8.19 0-11.314 3.124-3.125 8.189-3.125 11.313 0 28.165 28.165 28.165 73.993 0 102.158-1.561 1.563-3.609 2.344-5.656 2.344z" fill="#ebb19c"/><path d="m378.262 304.011c-2.047 0-4.095-.781-5.657-2.343-25.505-25.505-67.004-25.505-92.509 0-3.124 3.124-8.189 3.125-11.313 0-3.125-3.124-3.125-8.189 0-11.314 31.743-31.743 83.393-31.743 115.136 0 5.054 5.054 1.406 13.657-5.657 13.657z" fill="#ebb19c"/><path d="m119.794 155.16 36.87-93.94c5.627-.704 39.242-10.286 85.56-3.64 8.382 68.008-57.978 120.978-122.43 97.58z" fill="#e48c9b"/><path d="m241.904 82.521c-30.224-7.21-61.764-8.228-92.44-2.94l7.2-18.36c5.99-.75 38.612-10.293 85.56-3.64 1.02 8.279.92 16.679-.32 24.94z" fill="#cc5b6f"/><circle cx="280.928" cy="198.678" fill="#e48c9b" r="36.707"/><path d="m306.884 172.723c-9.086-9.086-21.749-12.405-33.456-9.972 6.763 1.405 13.207 4.723 18.456 9.972 20.741 20.741 9.825 56.008-18.456 61.883 11.707 2.432 24.369-.886 33.456-9.972 14.335-14.335 14.335-37.577 0-51.911z" fill="#cc5b6f"/><circle cx="170.617" cy="244.1" fill="#e48c9b" r="27.53"/><path d="m190.084 224.634c-7.303-7.303-17.687-9.639-26.967-7.021 4.382 1.236 8.518 3.572 11.967 7.021 14.923 14.923 8.098 40.293-11.967 45.954 9.28 2.618 19.664.282 26.967-7.021 10.751-10.751 10.751-28.182 0-38.933z" fill="#cc5b6f"/><circle cx="196.573" cy="347.923" fill="#e3889b" r="18.353"/><path d="m53.814 438.77c-13.32 13.32-32.8 16.74-49.29 10.24 5.393-14.014-.449.949 33.47-85.46 30.539 11.803 39.428 51.612 15.82 75.22z" fill="#e48c9b"/><path d="m37.994 363.55-2.317 5.902c33.152 24.626 19.25 76.584-20.799 82.286 13.804 1.965 28.324-2.356 38.936-12.968 23.619-23.618 14.708-63.421-15.82-75.22z" fill="#cc5b6f"/><g fill="#79cb9c"><circle cx="358.795" cy="224.634" r="9.177"/><circle cx="280.928" cy="107.834" r="9.177"/><circle cx="404.217" cy="321.967" r="9.177"/><circle cx="92.75" cy="308.989" r="9.177"/><circle cx="235.506" cy="283.034" r="9.177"/></g></g></svg>